<svg width="75" height="29" viewBox="0 0 75 29" fill="none" xmlns="http://www.w3.org/2000/svg">
<path fill-rule="evenodd" clip-rule="evenodd" d="M25.6636 20.522C25.6636 20.9721 25.7845 21.4143 26.0143 21.8042C26.244 22.194 26.5745 22.5178 26.9724 22.7429L37.438 28.6576C37.8352 28.882 38.2857 29 38.7442 29C39.2028 29 39.6532 28.882 40.0505 28.6576L50.5127 22.7475C50.8323 22.567 51.1084 22.3229 51.3238 22.0319C51.6292 22.2792 51.9724 22.4836 52.3443 22.6364C52.8483 22.8452 53.39 22.9521 53.9372 22.9509H57.9031C58.1997 22.9502 58.4902 22.8932 58.7597 22.7859C59.0297 22.8937 59.3209 22.951 59.6181 22.9516H61.1024C61.7087 22.9503 62.2896 22.7134 62.7178 22.2929C63.146 21.8725 63.3864 21.3028 63.3862 20.7089V17.703H63.5664C63.9326 17.7037 64.2963 17.656 64.6479 17.5619C64.6463 17.5967 64.6455 17.6316 64.6455 17.6665V18.9291C64.6435 19.4568 64.7479 19.9798 64.9528 20.4679C65.1578 20.956 65.4591 21.3996 65.8395 21.7734C66.22 22.1471 66.6721 22.4435 67.1698 22.6455C67.6675 22.8476 68.2011 22.9514 68.7399 22.9509H70.8777C71.4253 22.9523 71.9674 22.845 72.4715 22.6355C72.9517 22.4379 73.3901 22.1543 73.7643 21.7994C74.1519 21.4297 74.4594 20.9874 74.6686 20.4987C74.8817 20.0029 74.9909 19.4702 74.9897 18.9323V10.5156C74.9909 9.97822 74.8818 9.44604 74.6691 8.95067C74.4598 8.46207 74.1522 8.01973 73.7647 7.65001C73.3905 7.29426 72.952 7.00978 72.4715 6.81108C71.9674 6.60231 71.4255 6.49535 70.8782 6.4966V6.49474H68.7404C68.2018 6.49492 67.6686 6.59914 67.1712 6.80142C66.8052 6.95024 66.464 7.14998 66.1577 7.3939C65.8545 7.15515 65.5185 6.95846 65.1589 6.80994C64.6545 6.60016 64.112 6.49271 63.5641 6.49406L63.5664 6.49546H59.6181C59.3215 6.49612 59.031 6.55314 58.7615 6.66043C58.4915 6.55268 58.2003 6.49541 57.9031 6.49474L57.9026 6.49521H56.4008C55.8956 6.49492 55.4047 6.65951 55.0056 6.96298C54.6067 6.65922 54.1157 6.4946 53.6105 6.49521H52.1262C51.721 6.49611 51.3272 6.60218 50.9827 6.79792C50.8401 6.66852 50.6826 6.55456 50.5127 6.45857L40.051 0.542882C39.6529 0.317434 39.2012 0.19873 38.7414 0.19873C38.2816 0.19873 37.8299 0.317434 37.4318 0.542882L26.9677 6.48737C26.5709 6.71269 26.2416 7.03621 26.0127 7.42552C25.7838 7.81482 25.6634 8.25622 25.6636 8.70547V20.522Z" fill="black"/>
<path d="M36.2877 20.618C36.3379 20.6461 36.3797 20.6868 36.4086 20.7359C36.4376 20.7851 36.4527 20.8408 36.4524 20.8975C36.4521 20.9542 36.4364 21.0099 36.407 21.0587C36.3775 21.1075 36.3354 21.1478 36.2848 21.1754L34.82 21.9879L34.8091 21.9814L32.5328 23.2732C32.4333 23.3297 32.3203 23.3594 32.2053 23.3594C32.0904 23.3594 31.9774 23.3297 31.8779 23.2732L28.9339 21.6065C28.5366 21.3817 28.2068 21.0584 27.9775 20.6691C27.7483 20.2799 27.6277 19.8383 27.6279 19.3889V9.7821C27.6281 9.32898 27.7511 8.88402 27.9844 8.49274C28.2177 8.10147 28.5529 7.77792 28.9557 7.55518L29.1032 7.47343C29.1788 7.43156 29.2682 7.42077 29.3519 7.44341C29.4355 7.46605 29.5066 7.52028 29.5495 7.5942C29.5774 7.64232 29.592 7.69678 29.5917 7.75214V19.5975C29.5914 19.6538 29.6063 19.7093 29.6348 19.7582C29.6634 19.8071 29.7046 19.8478 29.7543 19.8762L31.3899 20.8103C31.4396 20.8384 31.4959 20.8531 31.5533 20.8531C31.6106 20.8531 31.667 20.8384 31.7167 20.8103L31.7375 20.7987C31.7874 20.7707 31.8288 20.7302 31.8576 20.6815C31.8864 20.6328 31.9016 20.5775 31.9016 20.5212C31.9016 20.4648 31.8864 20.4095 31.8576 20.3608C31.8288 20.3121 31.7874 20.2716 31.7375 20.2436L30.4064 19.4906C30.3565 19.4624 30.3152 19.4217 30.2865 19.3728C30.2579 19.3238 30.243 19.2683 30.2433 19.2119V7.19146C30.2432 7.07807 30.2739 6.96672 30.3323 6.86877C30.3906 6.77083 30.4744 6.68982 30.5752 6.63404L31.7176 6.00042C31.7932 5.95869 31.8826 5.94796 31.9662 5.97059C32.0498 5.99323 32.1209 6.04738 32.1638 6.1212C32.1916 6.16904 32.2062 6.22316 32.2061 6.27821V18.1235C32.2058 18.1799 32.2207 18.2354 32.2493 18.2844C32.278 18.3333 32.3193 18.374 32.3692 18.4022L36.2877 20.618Z" fill="white"/>
<path d="M35.3172 17.1224C35.2419 17.08 35.1868 17.0102 35.164 16.9282C35.1411 16.8462 35.1524 16.7587 35.1953 16.6848C35.2244 16.6344 35.267 16.5928 35.3186 16.5645L38.5803 14.6883C38.6297 14.6597 38.6706 14.6189 38.6989 14.57C38.7272 14.5211 38.7419 14.4658 38.7415 14.4096V3.12586C38.7416 3.0416 38.7248 2.95814 38.692 2.88026C38.6591 2.80237 38.6109 2.7316 38.5502 2.67197C38.4894 2.61235 38.4172 2.56505 38.3377 2.53277C38.2583 2.5005 38.1731 2.48389 38.0871 2.48389C37.9712 2.48374 37.8574 2.51406 37.7575 2.57168L34.8173 4.2565L33.1874 5.16186C33.0868 5.21783 33.0031 5.29888 32.9448 5.39678C32.8865 5.49468 32.8557 5.60594 32.8555 5.71928V17.7806C32.8553 17.837 32.8703 17.8924 32.8989 17.9413C32.9276 17.9903 32.9688 18.031 33.0186 18.0593L37.0993 20.3787C37.2003 20.436 37.3152 20.4658 37.4319 20.4649C37.5487 20.464 37.6631 20.4324 37.7632 20.3736L38.916 19.6944C38.9649 19.6655 39.0052 19.6245 39.033 19.5757C39.0608 19.5268 39.0751 19.4717 39.0745 19.4157C39.074 19.3598 39.0585 19.305 39.0297 19.2567C39.0009 19.2084 38.9598 19.1682 38.9103 19.1403L35.3172 17.1224ZM34.9762 6.4091L36.285 5.63799C36.3347 5.60887 36.3913 5.59318 36.4492 5.59254C36.5071 5.5919 36.5641 5.60632 36.6144 5.63434C36.6647 5.66236 36.7065 5.70297 36.7356 5.75201C36.7646 5.80105 36.7798 5.85676 36.7796 5.91345V13.3151C36.7796 13.3718 36.7642 13.4274 36.7351 13.4763C36.7061 13.5252 36.6643 13.5658 36.6141 13.5939L35.3053 14.3246C35.2555 14.3523 35.1992 14.3667 35.1419 14.3664C35.0847 14.3661 35.0285 14.3511 34.979 14.3229C34.9295 14.2947 34.8885 14.2543 34.8599 14.2057C34.8314 14.157 34.8164 14.1019 34.8164 14.0458V6.68502C34.8167 6.62949 34.8316 6.57498 34.8596 6.52667C34.8876 6.47837 34.9277 6.4379 34.9762 6.4091Z" fill="white"/>
<path d="M39.4042 3.5005V14.7619C39.4045 14.8183 39.3895 14.8738 39.3609 14.9227C39.3322 14.9717 39.2909 15.0123 39.2411 15.0406L36.6224 16.5271C36.5729 16.5553 36.5319 16.5957 36.5033 16.6443C36.4747 16.693 36.4597 16.7481 36.4597 16.8042C36.4597 16.8603 36.4747 16.9154 36.5033 16.964C36.5319 17.0126 36.5729 17.0531 36.6224 17.0813L40.2213 19.1215C40.2709 19.1496 40.3121 19.19 40.3408 19.2386C40.3694 19.2872 40.3845 19.3424 40.3845 19.3985C40.3845 19.4547 40.3694 19.5099 40.3408 19.5585C40.3121 19.6071 40.2709 19.6475 40.2213 19.6756L33.3546 23.5716C33.3043 23.5996 33.2625 23.6401 33.2334 23.689C33.2043 23.738 33.189 23.7936 33.189 23.8503C33.189 23.9069 33.2043 23.9626 33.2334 24.0115C33.2625 24.0605 33.3043 24.101 33.3546 24.129L37.4466 26.4233C37.8425 26.6453 38.2908 26.7621 38.747 26.7621C39.2031 26.7621 39.6514 26.6453 40.0473 26.4233L48.8806 21.4585C49.1801 21.2901 49.4289 21.0473 49.6019 20.7545C49.7749 20.4618 49.866 20.1295 49.866 19.7913V9.79432C49.866 9.34483 49.7452 8.90326 49.5159 8.51393C49.2866 8.1246 48.9568 7.80121 48.5595 7.57622L40.3849 2.9454C40.2855 2.88909 40.1728 2.85942 40.058 2.85938C39.9432 2.85933 39.8304 2.88891 39.731 2.94514C39.6315 3.00137 39.549 3.08226 39.4916 3.17967C39.4343 3.27709 39.4041 3.38758 39.4042 3.50004V3.5005ZM47.4143 17.2936L41.6919 14.0419C41.5928 13.9856 41.5105 13.9047 41.4533 13.8075C41.3961 13.7102 41.3661 13.6 41.3661 13.4877V9.22435C41.3659 9.16799 41.3808 9.11257 41.4095 9.06369C41.4381 9.01481 41.4794 8.97418 41.5292 8.94592C41.579 8.91765 41.6355 8.90274 41.693 8.90269C41.7505 8.90264 41.8071 8.91745 41.8569 8.94563L46.6019 11.6399C46.9983 11.8651 47.3273 12.1884 47.556 12.5773C47.7847 12.9663 47.9051 13.4072 47.9051 13.8561V17.0148C47.9052 17.0569 47.8969 17.0986 47.8806 17.1375C47.8642 17.1764 47.8402 17.2118 47.8099 17.2416C47.7796 17.2714 47.7436 17.2951 47.7039 17.3112C47.6643 17.3274 47.6218 17.3358 47.5788 17.3358C47.521 17.336 47.4641 17.3209 47.4143 17.2922V17.2936Z" fill="#627EF7"/>
<path d="M36.2866 21.1814L34.8217 21.9966L34.8108 21.9901L32.5346 23.2871C32.435 23.3437 32.3218 23.3736 32.2067 23.3736C32.0915 23.3736 31.9783 23.3437 31.8787 23.2871L28.9348 21.6148C28.5409 21.3901 28.2139 21.0684 27.9863 20.6816L29.6319 19.7483C29.6606 19.8003 29.7032 19.8437 29.7552 19.8738L31.3908 20.8112C31.4404 20.8393 31.4968 20.8541 31.5541 20.8541C31.6115 20.8541 31.6678 20.8393 31.7175 20.8112L31.7384 20.7995C31.7884 20.7714 31.83 20.7308 31.8589 20.6818C31.8878 20.6329 31.903 20.5774 31.903 20.5208C31.903 20.4643 31.8878 20.4088 31.8589 20.3598C31.83 20.3109 31.7884 20.2703 31.7384 20.2421L30.4077 19.4863C30.359 19.4585 30.3185 19.4188 30.2901 19.3711L32.2429 18.2646C32.2716 18.3189 32.3153 18.3641 32.3691 18.3952L36.2895 20.6221C36.3395 20.6503 36.3811 20.6909 36.41 20.7398C36.4389 20.7887 36.4541 20.8443 36.4541 20.9008C36.4541 20.9574 36.4389 21.0129 36.41 21.0618C36.3811 21.1108 36.3395 21.1514 36.2895 21.1795L36.2866 21.1814Z" fill="#8F9BB2"/>
<path d="M49.6071 20.7239C49.4344 21.0248 49.1819 21.2743 48.8763 21.4462L40.0449 26.4203C39.6493 26.6428 39.201 26.7599 38.7448 26.7599C38.2886 26.7599 37.8404 26.6428 37.4447 26.4203L33.3532 24.1209C33.3032 24.0926 33.2618 24.052 33.233 24.0031C33.2041 23.9542 33.189 23.8987 33.189 23.8422C33.189 23.7857 33.2041 23.7302 33.233 23.6813C33.2618 23.6324 33.3032 23.5917 33.3532 23.5635L38.7474 20.4953L40.2199 19.6592C40.27 19.6311 40.3117 19.5905 40.3407 19.5416C40.3697 19.4926 40.385 19.437 40.385 19.3805C40.385 19.3239 40.3697 19.2683 40.3407 19.2193C40.3117 19.1704 40.27 19.1298 40.2199 19.1017L38.7474 18.2656L36.6201 17.0578C36.5699 17.0298 36.5282 16.9892 36.4992 16.9403C36.4702 16.8913 36.4549 16.8357 36.4549 16.7791C36.4549 16.7225 36.4702 16.6669 36.4992 16.618C36.5282 16.5691 36.5699 16.5285 36.6201 16.5004L38.7479 15.2885L39.2387 15.0098C39.2838 14.9841 39.3219 14.948 39.3497 14.9048L49.6071 20.7239Z" fill="#3B4C95"/>
<path d="M38.9145 19.6539L38.7395 19.7565L37.7621 20.3335C37.662 20.3923 37.5476 20.4239 37.4309 20.4248C37.3141 20.4257 37.1993 20.3959 37.0982 20.3386L33.0199 18.0206C32.995 18.006 32.972 17.9884 32.9516 17.9681C32.932 17.9489 32.9151 17.9272 32.9014 17.9035L33.7986 17.3926L35.2796 16.5522C35.2684 16.5605 35.2579 16.5697 35.2483 16.5797C35.2384 16.5888 35.2295 16.5989 35.2217 16.6099C35.2199 16.6113 35.2186 16.6132 35.2179 16.6154C35.2108 16.6239 35.2046 16.6331 35.1994 16.6428C35.197 16.6466 35.1948 16.6504 35.1928 16.6544C35.1895 16.661 35.1862 16.6674 35.1838 16.6735C35.1806 16.6796 35.1779 16.686 35.1757 16.6925C35.1727 16.6996 35.1703 16.7069 35.1686 16.7144C35.1666 16.7179 35.1655 16.7219 35.1653 16.726C35.1628 16.7356 35.1609 16.7454 35.1596 16.7552C35.1497 16.819 35.1597 16.8841 35.1883 16.9422C35.2169 17.0002 35.2628 17.0484 35.3199 17.0804L38.7438 19.0021L38.9126 19.095C38.9879 19.1372 39.043 19.2069 39.0659 19.2889C39.0888 19.3709 39.0774 19.4583 39.0345 19.5322C39.006 19.5823 38.9647 19.6243 38.9145 19.6539Z" fill="#8F9BB2"/>
<path d="M58.246 8.74533V20.7161C58.2461 20.7581 58.2377 20.7997 58.2213 20.8386C58.205 20.8774 58.181 20.9128 58.1507 20.9425C58.1204 20.9723 58.0844 20.9959 58.0448 21.012C58.0051 21.0282 57.9627 21.0365 57.9198 21.0366H53.9539C53.3862 21.0371 52.8415 20.8175 52.4387 20.4257C52.2453 20.2353 52.0908 20.0105 51.9835 19.7633C51.8706 19.5021 51.814 19.221 51.817 18.9374V8.74533C51.8169 8.7033 51.8253 8.66166 51.8417 8.62281C51.8581 8.58395 51.8821 8.54864 51.9124 8.51888C51.9427 8.48911 51.9787 8.46548 52.0183 8.44934C52.0579 8.4332 52.1004 8.42487 52.1433 8.4248H53.6276C53.6705 8.42487 53.713 8.4332 53.7526 8.44934C53.7922 8.46548 53.8282 8.48911 53.8585 8.51888C53.8888 8.54864 53.9128 8.58395 53.9292 8.62281C53.9455 8.66166 53.9539 8.7033 53.9539 8.74533V18.6164C53.9538 18.6585 53.9622 18.7001 53.9785 18.7389C53.9949 18.7778 54.0189 18.8131 54.0492 18.8429C54.0795 18.8726 54.1155 18.8963 54.1551 18.9124C54.1947 18.9285 54.2372 18.9369 54.2801 18.9369H55.7654C55.8083 18.9369 55.8508 18.9285 55.8904 18.9124C55.93 18.8963 55.966 18.8726 55.9963 18.8429C56.0266 18.8131 56.0506 18.7778 56.0669 18.7389C56.0833 18.7001 56.0917 18.6585 56.0916 18.6164V8.74533C56.0916 8.7033 56.1 8.66166 56.1163 8.62281C56.1327 8.58395 56.1567 8.54864 56.187 8.51888C56.2173 8.48911 56.2533 8.46548 56.2929 8.44934C56.3325 8.4332 56.375 8.42487 56.4179 8.4248H57.9198C57.9627 8.42487 58.0051 8.4332 58.0448 8.44934C58.0844 8.46548 58.1204 8.48911 58.1507 8.51888C58.181 8.54864 58.205 8.58395 58.2213 8.62281C58.2377 8.66166 58.2461 8.7033 58.246 8.74533Z" fill="white"/>
<path d="M65.7151 10.5133V13.6618C65.7181 13.9454 65.6615 14.2265 65.5487 14.4877C65.4392 14.7382 65.2818 14.9659 65.0849 15.1585C64.8867 15.3534 64.6515 15.5083 64.3925 15.6147C64.1294 15.7237 63.8465 15.7793 63.5608 15.7782H61.7493C61.7063 15.7782 61.6639 15.7866 61.6242 15.8027C61.5846 15.8189 61.5486 15.8425 61.5183 15.8722C61.488 15.902 61.464 15.9373 61.4477 15.9762C61.4313 16.015 61.4229 16.0567 61.423 16.0987V20.7058C61.4231 20.7479 61.4147 20.7895 61.3983 20.8283C61.3819 20.8672 61.3579 20.9025 61.3276 20.9323C61.2973 20.962 61.2613 20.9857 61.2217 21.0018C61.1821 21.0179 61.1396 21.0263 61.0967 21.0263H59.6124C59.5695 21.0263 59.527 21.0179 59.4874 21.0018C59.4478 20.9857 59.4118 20.962 59.3815 20.9323C59.3512 20.9025 59.3272 20.8672 59.3108 20.8283C59.2945 20.7895 59.2861 20.7479 59.2861 20.7058V8.73509C59.2861 8.69306 59.2945 8.65143 59.3108 8.61257C59.3272 8.57372 59.3512 8.5384 59.3815 8.50864C59.4118 8.47888 59.4478 8.45525 59.4874 8.43911C59.527 8.42297 59.5695 8.41463 59.6124 8.41457H63.5608C63.8465 8.41339 64.1294 8.46902 64.3925 8.57808C64.6498 8.68358 64.8846 8.83531 65.0849 9.02542C65.2843 9.21595 65.4421 9.44415 65.5487 9.69619C65.6598 9.95481 65.7163 10.2327 65.7151 10.5133ZM63.5608 13.3418V10.8333C63.5608 10.7913 63.5524 10.7497 63.5361 10.7108C63.5197 10.672 63.4957 10.6367 63.4654 10.6069C63.4351 10.5771 63.3991 10.5535 63.3595 10.5374C63.3199 10.5212 63.2774 10.5129 63.2345 10.5128H61.7493C61.7063 10.5129 61.6639 10.5212 61.6242 10.5374C61.5846 10.5535 61.5486 10.5771 61.5183 10.6069C61.488 10.6367 61.464 10.672 61.4477 10.7108C61.4313 10.7497 61.4229 10.7913 61.423 10.8333V13.3418C61.4229 13.3838 61.4313 13.4254 61.4477 13.4643C61.464 13.5031 61.488 13.5384 61.5183 13.5682C61.5486 13.598 61.5846 13.6216 61.6242 13.6377C61.6639 13.6539 61.7063 13.6622 61.7493 13.6623H63.2345C63.3209 13.6622 63.4038 13.6285 63.4649 13.5687C63.5261 13.5089 63.5605 13.4278 63.5608 13.3432V13.3418Z" fill="white"/>
<path d="M73.0424 10.5137V18.9271C73.0437 19.2077 72.9871 19.4856 72.876 19.7442C72.7693 19.9962 72.6115 20.2244 72.4122 20.415C72.2119 20.6051 71.9771 20.7568 71.7198 20.8623C71.4567 20.9713 71.1737 21.0269 70.888 21.0258H68.7502C68.469 21.0262 68.1905 20.9721 67.9307 20.8667C67.6709 20.7613 67.435 20.6066 67.2364 20.4116C67.0378 20.2166 66.8805 19.985 66.7736 19.7303C66.6667 19.4755 66.6123 19.2025 66.6134 18.9271V17.6636C66.6133 17.6216 66.6217 17.5799 66.6381 17.5411C66.6544 17.5022 66.6784 17.4669 66.7087 17.4371C66.739 17.4074 66.775 17.3838 66.8146 17.3676C66.8543 17.3515 66.8967 17.3431 66.9397 17.3431H68.424C68.4669 17.3431 68.5094 17.3515 68.549 17.3676C68.5886 17.3838 68.6246 17.4074 68.6549 17.4371C68.6852 17.4669 68.7092 17.5022 68.7255 17.5411C68.7419 17.5799 68.7503 17.6216 68.7502 17.6636V18.6056C68.7502 18.6477 68.7586 18.6893 68.7749 18.7282C68.7913 18.767 68.8153 18.8023 68.8456 18.8321C68.8759 18.8619 68.9119 18.8855 68.9515 18.9016C68.9911 18.9178 69.0336 18.9261 69.0765 18.9262H70.5618C70.6047 18.9261 70.6471 18.9178 70.6868 18.9016C70.7264 18.8855 70.7623 18.8619 70.7926 18.8321C70.8229 18.8023 70.847 18.767 70.8633 18.7282C70.8797 18.6893 70.8881 18.6477 70.888 18.6056V16.0972C70.8881 16.0552 70.8797 16.0136 70.8633 15.9747C70.847 15.9359 70.8229 15.9005 70.7926 15.8708C70.7623 15.841 70.7264 15.8174 70.6868 15.8012C70.6471 15.7851 70.6047 15.7768 70.5618 15.7767H68.7502C68.4645 15.7779 68.1815 15.7223 67.9184 15.6132C67.6613 15.5083 67.4288 15.3531 67.2351 15.157C67.0428 14.9626 66.8885 14.7352 66.7799 14.4863C66.667 14.2251 66.6104 13.9439 66.6134 13.6603V10.5118C66.6123 10.2364 66.6667 9.96342 66.7736 9.70866C66.8805 9.4539 67.0378 9.22235 67.2364 9.02732C67.435 8.83229 67.6709 8.67762 67.9307 8.57222C68.1905 8.46681 68.469 8.41273 68.7502 8.4131H70.888C71.1737 8.41193 71.4567 8.46755 71.7198 8.57661C71.9771 8.6821 72.2119 8.83383 72.4122 9.02395C72.6115 9.21448 72.7693 9.44268 72.876 9.69472C72.9872 9.95392 73.0438 10.2325 73.0424 10.5137ZM70.888 13.3421V10.8337C70.8881 10.7917 70.8797 10.7501 70.8633 10.7112C70.847 10.6724 70.8229 10.637 70.7926 10.6073C70.7623 10.5775 70.7264 10.5539 70.6868 10.5377C70.6471 10.5216 70.6047 10.5133 70.5618 10.5132H69.0765C69.0336 10.5133 68.9911 10.5216 68.9515 10.5377C68.9119 10.5539 68.8759 10.5775 68.8456 10.6073C68.8153 10.637 68.7913 10.6724 68.7749 10.7112C68.7586 10.7501 68.7502 10.7917 68.7502 10.8337V13.3421C68.7502 13.3842 68.7586 13.4258 68.7749 13.4647C68.7913 13.5035 68.8153 13.5388 68.8456 13.5686C68.8759 13.5984 68.9119 13.622 68.9515 13.6381C68.9911 13.6543 69.0336 13.6626 69.0765 13.6627H70.5618C70.6482 13.6625 70.731 13.6289 70.7921 13.5691C70.8533 13.5093 70.8878 13.4282 70.888 13.3435V13.3421Z" fill="white"/>
<path d="M5.46885 10.2394C6.23789 10.2394 6.93448 10.4386 7.55863 10.8369C8.18278 11.2242 8.67318 11.7664 9.02984 12.4635C9.39764 13.1605 9.58154 13.9517 9.58154 14.8369C9.58154 15.7221 9.40321 16.5187 9.04656 17.2269C8.6899 17.924 8.1995 18.4717 7.57535 18.87C6.96235 19.2573 6.28247 19.4509 5.53572 19.4509C5.00074 19.4509 4.49362 19.3458 4.01436 19.1356C3.54625 18.9143 3.15616 18.6487 2.84408 18.3389V18.4385C2.84408 18.7262 2.74934 18.9696 2.55987 19.1688C2.3704 19.3569 2.13077 19.4509 1.84099 19.4509C1.5512 19.4509 1.31157 19.3569 1.1221 19.1688C0.932627 18.9807 0.837891 18.7373 0.837891 18.4385V8.01537C0.837891 7.72768 0.932627 7.48978 1.1221 7.30168C1.31157 7.10251 1.5512 7.00293 1.84099 7.00293C2.13077 7.00293 2.3704 7.10251 2.55987 7.30168C2.74934 7.48978 2.84408 7.72768 2.84408 8.01537V11.4842C3.11157 11.1523 3.48495 10.8646 3.96421 10.6212C4.44346 10.3667 4.94501 10.2394 5.46885 10.2394ZM5.21808 17.6252C5.93139 17.6252 6.51653 17.3597 6.97349 16.8286C7.43046 16.2974 7.65894 15.6335 7.65894 14.8369C7.65894 14.0402 7.43046 13.3818 6.97349 12.8618C6.52767 12.3307 5.94253 12.0651 5.21808 12.0651C4.49362 12.0651 3.90291 12.3307 3.44594 12.8618C2.98897 13.3818 2.76049 14.0402 2.76049 14.8369C2.76049 15.6335 2.98897 16.2974 3.44594 16.8286C3.90291 17.3597 4.49362 17.6252 5.21808 17.6252Z" fill="black"/>
<path d="M17.8913 10.4054C18.1811 10.4054 18.4207 10.505 18.6102 10.7041C18.7997 10.8922 18.8944 11.1301 18.8944 11.4178V18.4717C18.8944 19.9101 18.5043 20.9558 17.7241 21.6086C16.9439 22.2725 15.9018 22.6044 14.5978 22.6044C14.2189 22.6044 13.8288 22.5712 13.4275 22.5049C13.0374 22.4495 12.7198 22.3721 12.4746 22.2725C11.9285 22.0401 11.6554 21.7192 11.6554 21.3098C11.6554 21.2324 11.6721 21.1439 11.7055 21.0443C11.7724 20.8009 11.8839 20.6128 12.0399 20.48C12.2071 20.3583 12.3854 20.2974 12.5749 20.2974C12.6863 20.2974 12.7922 20.314 12.8925 20.3472C12.9706 20.3804 13.1043 20.4357 13.2938 20.5132C13.4944 20.5906 13.7006 20.6515 13.9124 20.6957C14.1353 20.7511 14.3637 20.7787 14.5978 20.7787C15.3891 20.7787 15.9687 20.6072 16.3365 20.2642C16.7155 19.9323 16.9049 19.3569 16.9049 18.5381V18.3721C16.3254 19.0913 15.4226 19.4509 14.1966 19.4509C13.617 19.4509 13.1043 19.3182 12.6585 19.0526C12.2127 18.776 11.8672 18.3998 11.622 17.924C11.3768 17.4371 11.2542 16.8839 11.2542 16.2642V11.4178C11.2542 11.1301 11.3489 10.8922 11.5384 10.7041C11.7278 10.505 11.9675 10.4054 12.2572 10.4054C12.547 10.4054 12.7867 10.505 12.9761 10.7041C13.1656 10.8922 13.2603 11.1301 13.2603 11.4178V15.6667C13.2603 16.3638 13.4108 16.8673 13.7117 17.1771C14.0238 17.4759 14.4752 17.6252 15.0659 17.6252C15.6455 17.6252 16.0913 17.4593 16.4034 17.1273C16.7266 16.7843 16.8882 16.2974 16.8882 15.6667V11.4178C16.8882 11.1301 16.9829 10.8922 17.1724 10.7041C17.3619 10.505 17.6015 10.4054 17.8913 10.4054Z" fill="black"/>
<path fill-rule="evenodd" clip-rule="evenodd" d="M1.84772 7.12787C1.59049 7.12787 1.38448 7.21471 1.21999 7.38761L1.21753 7.39019C1.05361 7.55293 0.970012 7.75818 0.970012 8.01582V18.439C0.970012 18.7091 1.05452 18.9194 1.2175 19.0812C1.38142 19.244 1.5882 19.3269 1.84772 19.3269C2.10656 19.3269 2.31294 19.2444 2.47666 19.0825C2.64216 18.9079 2.72543 18.696 2.72543 18.439V18.0389L2.93948 18.2514C3.23951 18.5492 3.6167 18.8068 4.0734 19.0229C4.53587 19.2255 5.02515 19.3269 5.54246 19.3269C6.26592 19.3269 6.92221 19.1397 7.51443 18.7657C8.11852 18.3801 8.59415 17.8497 8.94132 17.1713C9.28817 16.4825 9.46289 15.7054 9.46289 14.8373C9.46289 13.9697 9.28278 13.1988 8.9255 12.5217L8.92477 12.5203C8.57769 11.8419 8.10236 11.3174 7.49891 10.9429L7.49756 10.9421C6.8944 10.5572 6.2215 10.3643 5.47558 10.3643C4.97317 10.3643 4.49185 10.4862 4.03008 10.7314L4.02806 10.7324C3.56067 10.9698 3.20266 11.2473 2.94873 11.5624L2.72543 11.8395V8.01582C2.72543 7.75818 2.64187 7.5529 2.47794 7.39016L2.47541 7.38764C2.31093 7.21474 2.10495 7.12787 1.84772 7.12787ZM1.03891 7.21538C1.25318 6.9908 1.526 6.87891 1.84772 6.87891C2.16944 6.87891 2.44226 6.9908 2.65653 7.21538C2.87071 7.42865 2.9762 7.69872 2.9762 8.01582V11.1622C3.22821 10.9168 3.54118 10.7002 3.9128 10.5113C4.40924 10.2479 4.93069 10.1154 5.47558 10.1154C6.26746 10.1154 6.98751 10.3208 7.63247 10.7322C8.27679 11.1322 8.78193 11.6916 9.14801 12.4068C9.52609 13.1237 9.71366 13.9349 9.71366 14.8373C9.71366 15.7395 9.53179 16.5556 9.16544 17.283C8.79935 17.9986 8.29392 18.5642 7.64989 18.9752C7.01619 19.3755 6.31235 19.5759 5.54246 19.5759C4.9904 19.5759 4.46598 19.4673 3.97042 19.2499L3.96717 19.2485C3.58372 19.0672 3.24926 18.8558 2.96495 18.6137C2.97245 18.557 2.9762 18.4988 2.9762 18.439V18.3394H2.85082L2.76215 18.4274C2.76604 18.4313 2.76994 18.4351 2.77386 18.439C2.8348 18.4989 2.89851 18.5571 2.96495 18.6137C2.93259 18.8582 2.83038 19.0733 2.65776 19.2547L2.6553 19.2573C2.44028 19.4708 2.16777 19.5759 1.84772 19.5759C1.52767 19.5759 1.2552 19.4707 1.04017 19.2573C0.824203 19.0429 0.719238 18.7663 0.719238 18.439V8.01582C0.719238 7.69872 0.824737 7.42865 1.03891 7.21538ZM1.03891 7.21538C1.0385 7.21581 1.03809 7.21624 1.03768 7.21667L1.12884 7.30214L1.04017 7.21412C1.03975 7.21454 1.03933 7.21496 1.03891 7.21538ZM12.264 10.5303C12.0068 10.5303 11.8007 10.6172 11.6363 10.7901L11.6338 10.7927C11.4699 10.9554 11.3863 11.1606 11.3863 11.4183V16.2647C11.3863 16.8675 11.5054 17.4011 11.7406 17.8684C11.9756 18.324 12.3052 18.6827 12.7307 18.9469C13.1546 19.1992 13.6442 19.3269 14.2033 19.3269C15.4044 19.3269 16.2651 18.9756 16.8137 18.2948L17.037 18.0177V18.5385C17.037 19.3701 16.8456 19.9896 16.4277 20.3567C16.0264 20.73 15.4094 20.9037 14.6045 20.9037C14.3612 20.9037 14.1233 20.875 13.891 20.8175C13.6734 20.7719 13.4614 20.7093 13.2551 20.6296L13.2528 20.6287C13.0672 20.5529 12.9344 20.498 12.8549 20.4642C12.7694 20.4365 12.6785 20.4223 12.5816 20.4223C12.4228 20.4223 12.2713 20.4723 12.1247 20.578C11.9935 20.691 11.8945 20.8544 11.8332 21.0775L11.8314 21.0842C11.8008 21.1753 11.7875 21.25 11.7875 21.3103C11.7875 21.6483 12.0067 21.9354 12.5298 22.1581C12.7619 22.2523 13.0682 22.3277 13.452 22.3821L13.4549 22.3825C13.8498 22.4478 14.233 22.4804 14.6045 22.4804C15.8869 22.4804 16.8974 22.1543 17.6493 21.5145L17.65 21.5139C18.3916 20.8934 18.7757 19.8899 18.7757 18.4722V11.4183C18.7757 11.1606 18.6922 10.9554 18.5283 10.7926L18.5257 10.7901C18.3612 10.6172 18.1553 10.5303 17.898 10.5303C17.6408 10.5303 17.4348 10.6172 17.2703 10.7901L17.2678 10.7927C17.1039 10.9554 17.0203 11.1606 17.0203 11.4183V15.6672C17.0203 16.3184 16.8532 16.8398 16.5017 17.2128C16.1599 17.5763 15.677 17.7502 15.0726 17.7502C14.4615 17.7502 13.9743 17.5954 13.6314 17.2672L13.6282 17.264C13.2942 16.9202 13.1417 16.3775 13.1417 15.6672V11.4183C13.1417 11.1606 13.0581 10.9554 12.8942 10.7926L12.8917 10.7901C12.7272 10.6172 12.5212 10.5303 12.264 10.5303ZM11.4552 10.6178C11.6694 10.3933 11.9423 10.2814 12.264 10.2814C12.5857 10.2814 12.8585 10.3933 13.0728 10.6178C13.287 10.8311 13.3925 11.1012 13.3925 11.4183V15.6672C13.3925 16.3497 13.5402 16.8135 13.8072 17.0895C14.0884 17.3578 14.5035 17.5012 15.0726 17.5012C15.6273 17.5012 16.0361 17.3432 16.3184 17.0428C16.6134 16.7298 16.7696 16.2774 16.7696 15.6672V11.4183C16.7696 11.1012 16.875 10.8311 17.0892 10.6178C17.3035 10.3933 17.5763 10.2814 17.898 10.2814C18.2197 10.2814 18.4926 10.3933 18.7068 10.6178C18.921 10.8311 19.0265 11.1012 19.0265 11.4183V18.4722C19.0265 19.931 18.6306 21.0187 17.8121 21.7039C17.0037 22.3916 15.93 22.7294 14.6045 22.7294C14.2186 22.7294 13.8221 22.6956 13.415 22.6283C13.0198 22.5722 12.6917 22.4929 12.4338 22.3882L12.4319 22.3874C11.8634 22.1455 11.5367 21.7909 11.5367 21.3103C11.5367 21.2166 11.5566 21.1155 11.5922 21.0087C11.6643 20.7485 11.7866 20.5377 11.965 20.3859L11.9723 20.3798C12.1588 20.2439 12.363 20.1734 12.5816 20.1734C12.7058 20.1734 12.8252 20.1919 12.9389 20.2296L12.9488 20.2328C13.0258 20.2656 13.1582 20.3208 13.3471 20.398C13.5409 20.4728 13.7402 20.5316 13.9449 20.5744L13.9495 20.5754C14.1623 20.6282 14.3805 20.6547 14.6045 20.6547C15.3814 20.6547 15.923 20.4858 16.2574 20.1739L16.2602 20.1713C16.5762 19.8945 16.7603 19.4144 16.7837 18.6982C16.1758 19.2884 15.3092 19.5759 14.2033 19.5759C13.6037 19.5759 13.0682 19.4383 12.6007 19.1598L12.5988 19.1586C12.1332 18.8698 11.7723 18.4765 11.5171 17.9811L11.5165 17.9801C11.2615 17.4737 11.1355 16.901 11.1355 16.2647V11.4183C11.1355 11.1012 11.241 10.8311 11.4552 10.6178ZM13.415 22.6283C13.4146 22.6283 13.4141 22.6282 13.4136 22.6281L13.4343 22.5053L13.4165 22.6285C13.416 22.6285 13.4155 22.6284 13.415 22.6283ZM3.35776 12.7809C3.83929 12.2215 4.46515 11.9411 5.22481 11.9411C5.98427 11.9411 6.60503 12.2214 7.07565 12.7815C7.55495 13.3275 7.79106 14.016 7.79106 14.8373C7.79106 15.6592 7.55464 16.3531 7.07557 16.9099C6.5944 17.4691 5.97422 17.7502 5.22481 17.7502C4.46492 17.7502 3.83892 17.4696 3.35733 16.9099C2.87826 16.3531 2.64184 15.6592 2.64184 14.8373C2.64184 14.0158 2.87812 13.327 3.35776 12.7809ZM5.22481 12.1901C4.53578 12.1901 3.98036 12.4406 3.54801 12.9431L3.54716 12.9441C3.11316 13.438 2.89261 14.0658 2.89261 14.8373C2.89261 15.6088 3.11315 16.2427 3.54801 16.7482C3.98036 17.2507 4.53578 17.5012 5.22481 17.5012C5.90203 17.5012 6.45212 17.2512 6.88489 16.7482C7.31975 16.2427 7.54029 15.6088 7.54029 14.8373C7.54029 14.0658 7.31974 13.438 6.88574 12.9441L6.88388 12.942C6.46296 12.4405 5.91378 12.1901 5.22481 12.1901Z" fill="black"/>
</svg>
