<svg width="185" height="67" viewBox="0 0 185 67" fill="none" xmlns="http://www.w3.org/2000/svg">
<path d="M36.1927 60.1553H26.1L19.3985 44.6104C19.237 44.1786 18.914 43.396 18.4296 42.2625C17.999 41.0751 17.4876 39.7527 16.8955 38.2953C16.3572 36.784 15.792 35.2458 15.1999 33.6805C14.6078 32.1152 14.0696 30.6849 13.5851 29.3895C13.5851 34.6506 13.512 31.5792 13.3429 36.838C13.3429 39.8343 10.8398 42.2625 7.85172 42.2625H7.53559C4.21507 42.2625 1.59066 39.4398 1.8231 36.1183L3.53091 11.7155C3.78209 8.12644 6.75898 5.34353 10.3471 5.34353H10.6187C13.5319 5.34353 16.1516 7.122 17.2335 9.83422L28.0378 36.919C28.4146 37.8905 28.8991 39.2669 29.4912 41.0481C30.1371 42.7753 30.7561 44.6644 31.3482 46.7155C31.9404 44.7184 32.5325 42.8562 33.1246 41.129C33.7705 39.3479 34.3088 37.9445 34.7394 36.919L45.5928 9.71119C46.6451 7.07327 49.193 5.34353 52.0263 5.34353C55.6945 5.34353 58.7271 8.21008 58.9434 11.8818L61.7878 60.1553H49.2729L48.7884 49.1443C48.7346 48.1188 48.6808 46.7694 48.6269 45.0962C48.6269 43.423 48.6269 41.6688 48.6269 39.8336C48.6269 37.9445 48.6269 36.0824 48.6269 34.2472C48.6808 32.3581 48.7077 30.7388 48.7077 29.3895C48.2771 30.5229 47.7926 31.8183 47.2543 33.2757C46.7699 34.679 46.2585 36.0554 45.7202 37.4048C45.182 38.7541 44.6706 40.0225 44.1862 41.21C43.7017 42.3435 43.3249 43.2341 43.0558 43.8818L36.1927 60.1553Z" fill="#205CF5"/>
<path d="M72.4457 58.4551C70.3462 56.3498 69.7402 54.245 69.7402 51.3303V25.9081C69.7402 22.3756 72.596 19.512 76.1188 19.512C79.6416 19.512 82.4974 22.3756 82.4974 25.9081V47.687C82.4974 48.9284 82.6858 49.7651 83.0626 50.1969C83.4394 50.6287 84.0046 50.8446 84.7582 50.8446C85.1888 50.8446 92.7657 50.8176 93.1963 50.7636C93.6269 50.6556 93.0079 50.8176 93.1156 50.7636L87.9878 58.536C87.934 58.59 87.6918 58.7249 87.2612 58.9408C86.8305 59.1028 86.2654 59.3187 85.5656 59.5885C82.2154 59.0218 79.6317 59.7505 76.7618 60.1679C74.222 60.1553 73.4146 59.4266 72.4457 58.4551ZM76.2803 0C78.5411 0 80.2636 0.674688 81.4478 2.02407C82.632 3.37344 83.2241 5.07366 83.2241 7.12472C83.2241 9.22974 82.6051 10.9839 81.367 12.3873C80.1828 13.7906 78.3796 14.4923 75.9573 14.4923C73.6966 14.4923 71.9472 13.8176 70.7091 12.4683C69.5249 11.0649 68.9328 9.41866 68.9328 7.52953C68.9328 5.37052 69.5518 3.58934 70.7899 2.18599C72.0279 0.728664 73.8581 0 76.2803 0Z" fill="#205CF5"/>
<path d="M90.342 60.1553V53.0306L105.683 29.0656C104.66 29.1196 103.691 29.1735 102.776 29.2275C101.861 29.2275 100.946 29.2275 100.031 29.2275H96.5474C94.2681 29.2275 92.3198 27.5819 91.9325 25.3295C91.439 22.4595 93.643 19.8359 96.5474 19.8359H114.534C117.895 19.8359 120.62 22.5683 120.62 25.9389C120.62 27.0827 120.299 28.2035 119.695 29.1735L106.087 51.0065C106.786 50.9525 107.459 50.9255 108.105 50.9255C108.805 50.8715 109.532 50.8446 110.285 50.8446H138.167V60.1553H90.342Z" fill="#205CF5"/>
<path d="M147.533 25.9081C147.533 22.3756 150.389 19.512 153.911 19.512C157.434 19.512 160.29 22.3756 160.29 25.9081V40.6433C160.29 43.8818 159.243 58.1312 168.851 58.2931C169.282 60.4521 160.912 57.9693 161.504 59.2647C162.15 60.83 158.756 58.2931 160.936 60.1553L168.851 66.3894C157.709 66.3894 153.508 59.6965 153.023 58.9408C152.593 58.3471 152.162 57.5914 151.731 56.6739C151.301 55.7023 151.196 55.8103 150.927 54.5688C149.527 57.1057 148.747 57.9608 146.082 59.2647C144.262 60.1553 141.02 60.1553 138.167 60.1553C136.068 60.1553 132.356 60.1553 131.064 60.1553C129.611 59.4536 128.882 58.0233 127.913 56.8358C126.998 55.5944 126.325 54.1101 125.894 52.3829C125.517 50.6556 125.329 48.7125 125.329 46.5535V25.9485C125.329 22.3937 128.203 19.512 131.748 19.512C135.293 19.512 138.167 22.3937 138.167 25.9485V44.8533C138.167 46.7425 138.382 48.2807 138.813 49.4682C139.297 50.6017 140.158 51.1684 141.397 51.1684C142.904 51.1684 144.79 50.4937 146.082 48.4966C147.374 46.4456 147.533 43.315 147.533 39.7527V25.9081Z" fill="#205CF5"/>
<path d="M76.6443 53.0306H91.9852V60.1553H76.6443V53.0306Z" fill="#205CF5"/>
<path d="M11.5756 48.9521C10.5052 47.7309 8.94812 47.1203 6.90449 47.1203C4.71489 47.1203 3.06052 47.7797 1.94139 49.0987C0.82226 50.3687 0.262695 51.9808 0.262695 53.9347C0.262695 55.6444 0.797931 57.1343 1.8684 58.4044C2.98753 59.6256 4.56891 60.2362 6.61254 60.2362C8.80215 60.2362 10.4322 59.6012 11.5027 58.3311C12.6218 57.061 13.1814 55.4734 13.1814 53.5683C13.1814 51.7121 12.6461 50.1733 11.5756 48.9521Z" fill="#205CF5"/>
<path fill-rule="evenodd" clip-rule="evenodd" d="M155.771 43.8818C158.001 43.8818 159.808 45.6942 159.808 47.9299C159.808 54.1716 164.124 58.2931 168.367 58.2931C172.61 58.2931 176.925 54.1716 176.925 47.9299C176.925 45.6942 178.733 43.8818 180.962 43.8818C183.192 43.8818 184.999 45.6942 184.999 47.9299C184.999 57.6066 178.037 66.3894 168.367 66.3894C158.697 66.3894 151.734 57.6066 151.734 47.9299C151.734 45.6942 153.541 43.8818 155.771 43.8818Z" fill="#205CF5"/>
</svg>
