<svg width="68" height="68" viewBox="0 0 68 68" fill="none" xmlns="http://www.w3.org/2000/svg">
<path d="M67.709 33.6096C67.709 52.1717 52.5518 67.2193 33.8545 67.2193C15.1572 67.2193 0 52.1717 0 33.6096C0 15.0475 15.1572 0 33.8545 0C52.5518 0 67.709 15.0475 67.709 33.6096Z" fill="#205CF5"/>
<path d="M31.4382 16.3826C32.6958 15.8134 34.3536 16.4965 36.4116 18.4316C36.4116 18.5455 36.2973 18.7732 36.0686 19.1147C35.0396 20.936 34.6395 24.2941 34.8682 29.1889C36.0115 30.3273 36.6975 31.0103 36.9262 31.2379C39.2128 28.8474 40.9849 26.7984 42.2426 25.0909C42.9285 24.0663 43.2715 22.9849 43.2715 21.8466C43.2715 21.5051 43.3287 21.2774 43.443 21.1636C45.501 21.1636 47.0445 22.1881 48.0735 24.2372C48.0735 24.4648 47.8448 24.6925 47.3875 24.9202C46.4728 25.2617 45.6153 25.717 44.815 26.2862C44.472 26.5138 43.9003 26.9123 43.1 27.4814C41.1563 28.9613 39.2699 30.4411 37.4405 31.921C42.2425 37.1573 47.9019 40.3446 54.4188 41.4831C55.4478 41.7107 56.0194 41.9384 56.1338 42.1661C56.2481 42.2799 55.9051 42.4507 55.1048 42.6783C50.8745 43.4752 48.3593 43.8167 47.5593 43.7028C46.4159 43.7028 45.4441 43.1905 44.6438 42.166C41.7855 39.2063 38.5271 35.3358 34.8687 30.5546C34.983 33.4004 35.1545 37.8399 35.3832 43.873C35.3832 45.1252 35.3832 45.7512 35.3832 45.7512C35.6118 48.4833 34.9258 50.6461 33.3252 52.2398C33.0965 52.2398 32.582 51.7844 31.7817 50.8737C30.6383 49.5077 29.495 48.4263 28.3517 47.6295C27.3227 46.8327 27.8944 46.605 30.0667 46.9465C31.4387 47.1742 32.239 47.2311 32.4677 47.1172C32.6963 46.8896 32.8678 44.499 32.9822 39.9456C33.0965 34.9372 33.0965 29.8146 32.9822 24.5778C32.9822 21.8458 32.5248 19.5691 31.6102 17.7478C31.3815 17.1786 31.3328 16.3826 31.4387 16.3818L31.4382 16.3826ZM28.0082 27.3107C29.6088 27.6522 30.6378 28.3922 31.0952 29.5305C31.0952 29.6443 30.9237 29.9289 30.5807 30.3843C29.8948 31.1811 29.4374 31.921 29.2087 32.6041C27.0365 39.2066 23.149 43.9307 17.5465 46.7764C16.9748 47.1179 16.5747 47.2317 16.346 47.1179C16.2317 46.8902 16.4604 46.5487 17.032 46.0934C22.4058 41.6539 25.7786 36.3605 27.1503 30.2134C26.9217 30.0996 25.8355 30.4411 23.8919 31.2379C22.2913 31.8071 21.3194 32.0917 20.9764 32.0917C17.8895 31.0671 17.2035 30.3841 18.9184 30.0426C22.6914 29.7011 25.4924 28.9043 27.3216 27.6522C27.6646 27.4245 27.8932 27.3106 28.0075 27.3106L28.0082 27.3107Z" fill="white"/>
<path fill-rule="evenodd" clip-rule="evenodd" d="M31.4378 16.3818C31.4375 16.3818 31.4371 16.3818 31.4368 16.3819C31.3698 16.3885 31.367 16.7227 31.4352 17.1112C31.4723 17.322 31.5302 17.5487 31.6102 17.7478C32.5248 19.5691 32.9822 21.8458 32.9822 24.5778C33.0965 29.8146 33.0965 34.9372 32.9822 39.9456C32.8678 44.499 32.6963 46.8896 32.4677 47.1172C32.239 47.2311 31.4387 47.1742 30.0667 46.9465C27.8944 46.605 27.3227 46.8327 28.3517 47.6295C29.495 48.4263 30.6383 49.5077 31.7817 50.8737C32.582 51.7844 33.0965 52.2398 33.3252 52.2398C34.9258 50.6461 35.6118 48.4833 35.3832 45.7512V43.873C35.1859 38.6694 35.0312 34.6513 34.9191 31.8187C34.9012 31.3672 34.8844 30.9458 34.8687 30.5546C35.1281 30.8937 35.3856 31.2282 35.641 31.5581C38.9873 35.8803 41.9882 39.4162 44.6438 42.166C45.4441 43.1905 46.4159 43.7028 47.5593 43.7028C48.3593 43.8167 50.8745 43.4752 55.1048 42.6783C55.2466 42.638 55.3741 42.5994 55.4872 42.5627C55.4963 42.5597 55.5053 42.5568 55.5143 42.5538C55.5149 42.5536 55.5155 42.5534 55.5162 42.5532C55.5164 42.5531 55.5167 42.553 55.5169 42.5529C55.6639 42.5045 55.7855 42.4591 55.8818 42.417C56.1151 42.3148 56.1991 42.2311 56.1338 42.1661C56.0731 42.0452 55.8836 41.9244 55.5652 41.8036C55.5467 41.7966 55.5279 41.7896 55.5086 41.7826C55.2332 41.6827 54.8699 41.5829 54.4188 41.4831C48.1266 40.3839 42.6338 37.3746 37.9404 32.4554C37.7727 32.2797 37.6061 32.1016 37.4405 31.921C37.6298 31.7679 37.8197 31.6148 38.0102 31.4617C39.6608 30.1349 41.3574 28.8082 43.1 27.4814C43.9003 26.9123 44.472 26.5138 44.815 26.2862C45.6153 25.717 46.4728 25.2617 47.3875 24.9202C47.8448 24.6925 48.0735 24.4648 48.0735 24.2372C47.0445 22.1881 45.501 21.1636 43.443 21.1636C43.3287 21.2774 43.2715 21.5051 43.2715 21.8466C43.2715 22.9849 42.9285 24.0663 42.2426 25.0909C41.0788 26.671 39.4743 28.5436 37.4293 30.7086C37.2645 30.8831 37.0967 31.0596 36.9262 31.2379L34.8682 29.1889C34.6395 24.2941 35.0396 20.936 36.0686 19.1147C36.2973 18.7732 36.4116 18.5455 36.4116 18.4316C34.7194 16.8404 33.2978 16.0958 32.1467 16.1978C31.8983 16.2198 31.6625 16.2813 31.4393 16.3821C31.4391 16.3822 31.4389 16.3823 31.4387 16.3824C31.4385 16.3825 31.4384 16.3826 31.4382 16.3826L31.4387 16.3818C31.4384 16.3818 31.4381 16.3818 31.4378 16.3818ZM31.193 15.694C31.0506 15.7433 30.9438 15.8289 30.8751 15.9054C30.7825 16.0086 30.7384 16.1139 30.7183 16.1692C30.6768 16.2833 30.6645 16.3927 30.6593 16.4572C30.6476 16.6016 30.6549 16.7671 30.671 16.9251C30.7034 17.2435 30.7847 17.6547 30.9308 18.0183C30.9383 18.0371 30.9466 18.0555 30.9557 18.0736C31.8053 19.7653 32.2504 21.922 32.2504 24.5778C32.2504 24.5831 32.2505 24.5884 32.2506 24.5937C32.3647 29.8199 32.3647 34.9315 32.2507 39.9285C32.1936 42.2015 32.1224 43.9237 32.0379 45.1017C31.9955 45.6928 31.9507 46.1327 31.9051 46.4313C31.9045 46.435 31.9039 46.4386 31.9034 46.4422C31.8566 46.4402 31.8049 46.4373 31.7481 46.4332C31.3814 46.4072 30.8642 46.3402 30.187 46.2279C30.185 46.2275 30.1829 46.2272 30.1809 46.2269C29.6244 46.1394 29.1506 46.085 28.7681 46.0692C28.4183 46.0547 28.0369 46.0652 27.737 46.1847C27.5776 46.2482 27.3365 46.3842 27.205 46.6679C27.0658 46.9683 27.1308 47.2539 27.2114 47.4345C27.35 47.7449 27.6443 48.0046 27.9025 48.2046C27.9122 48.2121 27.9221 48.2193 27.9321 48.2263C29.0099 48.9775 30.1068 50.0106 31.2196 51.3402C31.2213 51.3422 31.223 51.3442 31.2247 51.3462C31.2268 51.3486 31.2289 51.3511 31.231 51.3535C31.6386 51.8173 31.9907 52.1852 32.2817 52.4428C32.4262 52.5707 32.5728 52.6867 32.7166 52.7749C32.837 52.8486 33.0573 52.9683 33.3252 52.9683C33.5193 52.9683 33.7054 52.8915 33.8426 52.7549C35.6219 50.9834 36.3495 48.6026 36.1149 45.7214V43.873C36.1149 43.8638 36.1147 43.8547 36.1144 43.8455C35.9398 39.2385 35.7985 35.5603 35.6905 32.8113C38.7856 36.7689 41.5858 40.0481 44.0905 42.6442C44.9931 43.7848 46.1415 44.4164 47.5103 44.4311C47.7835 44.4632 48.1344 44.4569 48.5313 44.4296C48.968 44.3996 49.5071 44.3405 50.1446 44.2539C51.4202 44.0807 53.1206 43.7936 55.2408 43.3942C55.2627 43.3901 55.2844 43.3849 55.3058 43.3788C55.7112 43.2635 56.0531 43.1489 56.2895 43.0311C56.3885 42.9819 56.5706 42.8847 56.7052 42.7172C56.7803 42.6237 56.8869 42.4503 56.8869 42.2114C56.8869 42.0253 56.8227 41.8737 56.7438 41.7611C56.6343 41.5856 56.4848 41.4666 56.3681 41.3891C56.2251 41.2942 56.0603 41.2156 55.891 41.1481C55.5517 41.013 55.1075 40.8892 54.5775 40.7719C54.5668 40.7695 54.556 40.7674 54.5452 40.7655C48.437 39.6984 43.0958 36.7855 38.5109 31.9955C40.1405 30.6863 41.8152 29.3769 43.535 28.0674C44.3301 27.502 44.89 27.112 45.2209 26.8924C45.2246 26.8899 45.2283 26.8874 45.2319 26.8849C45.2347 26.883 45.2375 26.881 45.2403 26.879C45.989 26.3465 46.7899 25.9213 47.6444 25.6023C47.6683 25.5934 47.6918 25.5832 47.7147 25.5718C47.9778 25.4408 48.2268 25.2856 48.4194 25.0938C48.6135 24.9006 48.8052 24.6124 48.8052 24.2372C48.8052 24.1241 48.7787 24.0125 48.7279 23.9114C48.1701 22.8004 47.4504 21.9234 46.55 21.3258C45.6451 20.7252 44.6001 20.4351 43.443 20.4351C43.249 20.4351 43.0628 20.5118 42.9256 20.6484C42.7412 20.832 42.6514 21.0562 42.6045 21.243C42.5565 21.4343 42.5398 21.6407 42.5398 21.8466C42.5398 22.8245 42.2493 23.7625 41.6426 24.6734C40.5061 26.2147 38.9318 28.0537 36.9117 30.1932L36.7495 30.0317C36.7398 30.0221 36.7435 30.0257 36.7461 30.0283L36.3457 29.6296C36.3452 29.6292 36.3599 29.6438 36.3435 29.6275L36.309 29.5931C36.3075 29.5916 36.3056 29.5897 36.3033 29.5875L36.279 29.5633C36.2778 29.5621 36.2758 29.5601 36.2727 29.557L36.0046 29.29C36.0072 29.2926 36.0239 29.3092 36.0032 29.2886L35.7808 29.0673C35.7539 29.0405 35.7956 29.082 35.7687 29.0552L35.6326 28.9197C35.6046 28.8918 35.648 28.935 35.62 28.9071L35.5866 28.8739C35.4895 26.5748 35.5372 24.6478 35.7234 23.0851C35.9164 21.4651 36.253 20.2854 36.6937 19.4944C36.809 19.3209 36.9074 19.1589 36.9804 19.0136C37.0404 18.894 37.1434 18.6742 37.1434 18.4316C37.1434 18.2312 37.0604 18.0396 36.9141 17.902C35.8533 16.9046 34.8494 16.1841 33.9046 15.7948C32.9686 15.4092 32.0417 15.3316 31.193 15.694ZM55.6659 41.7109C55.6659 41.7111 55.6631 41.7129 55.657 41.7164C55.6628 41.7125 55.666 41.7107 55.6659 41.7109ZM55.5681 42.6101C55.5679 42.6101 55.5661 42.6087 55.563 42.606C55.5667 42.6087 55.5683 42.6101 55.5681 42.6101ZM28.0902 26.5868C28.1142 26.5895 28.138 26.5933 28.1615 26.5984C29.9135 26.9722 31.198 27.8249 31.7746 29.2599C31.8092 29.346 31.8269 29.4378 31.8269 29.5305C31.8269 29.711 31.7672 29.8615 31.7356 29.9349C31.6963 30.0264 31.646 30.1179 31.5941 30.2042C31.4894 30.3778 31.3437 30.5857 31.1661 30.8214C31.1566 30.8341 31.1466 30.8464 31.1363 30.8584C30.4868 31.6129 30.092 32.2706 29.9035 32.8328C27.6809 39.5868 23.6829 44.4702 17.901 47.4142C17.5966 47.5945 17.2991 47.7386 17.0187 47.8184C16.7468 47.8957 16.3732 47.9459 16.0188 47.7695C15.8772 47.699 15.7624 47.5847 15.6916 47.4437C15.4569 46.9764 15.6572 46.5345 15.823 46.2869C15.9985 46.0247 16.2653 45.7715 16.5697 45.5287C21.5055 41.4496 24.6927 36.6584 26.1677 31.1494C25.6714 31.3157 25.0077 31.5683 24.1705 31.9115C24.1598 31.9159 24.1489 31.9201 24.138 31.924C23.3321 32.2106 22.6742 32.4292 22.169 32.5771C21.6997 32.7146 21.2705 32.8202 20.9764 32.8202C20.8978 32.8202 20.8196 32.8076 20.745 32.7828C19.961 32.5226 19.3127 32.2787 18.8086 32.0505C18.327 31.8326 17.9005 31.5962 17.6293 31.3262C17.4938 31.1913 17.3206 30.9735 17.2776 30.6739C17.2276 30.3256 17.3744 30.0374 17.565 29.8476C17.7336 29.6798 17.944 29.5761 18.1252 29.5067C18.3165 29.4335 18.5368 29.3757 18.7749 29.3282C18.8005 29.3232 18.8263 29.3194 18.8522 29.3171C22.5775 28.9799 25.2305 28.1995 26.907 27.0518C26.9099 27.0499 26.9128 27.0479 26.9157 27.046C27.0991 26.9242 27.2703 26.8204 27.4231 26.7444C27.5431 26.6846 27.7639 26.5821 28.0075 26.5821C28.0349 26.5821 28.0623 26.5836 28.0895 26.5867L28.0902 26.5868ZM26.3755 30.3203C26.6984 30.2273 26.926 30.1849 27.0583 30.1931C27.0972 30.1955 27.1279 30.2022 27.1503 30.2134C27.0977 30.4492 27.0422 30.6837 26.9836 30.917C26.983 30.9197 26.9823 30.9224 26.9816 30.9252C25.5138 36.7701 22.1973 41.8261 17.032 46.0934C16.8983 46.1999 16.7833 46.3002 16.6871 46.3943C16.6683 46.4127 16.6502 46.4309 16.6328 46.4488C16.3593 46.7309 16.2637 46.9539 16.346 47.1179C16.501 47.195 16.7346 47.1676 17.0471 47.0357C17.0674 47.0271 17.0882 47.018 17.1092 47.0085C17.2417 46.9487 17.3875 46.8714 17.5465 46.7764C23.149 43.9307 27.0365 39.2066 29.2087 32.6041C29.4374 31.921 29.8948 31.1811 30.5807 30.3843C30.9237 29.9289 31.0952 29.6443 31.0952 29.5305C30.6378 28.3922 29.6088 27.6522 28.0082 27.3107L28.0075 27.3106C27.8932 27.3106 27.6646 27.4245 27.3216 27.6522C25.4924 28.9043 22.6914 29.7011 18.9184 30.0426C17.2035 30.3841 17.8895 31.0671 20.9764 32.0917C21.3194 32.0917 22.2913 31.8071 23.8919 31.2379C24.9969 30.7849 25.8248 30.479 26.3755 30.3203ZM16.5449 46.4323C16.545 46.4322 16.5468 46.432 16.5502 46.432C16.5466 46.4324 16.5448 46.4324 16.5449 46.4323Z" fill="white"/>
</svg>
